<?xml version="1.0" standalone="no"?>
<!DOCTYPE svg PUBLIC "-//W3C//DTD SVG 20010904//EN"
 "http://www.w3.org/TR/2001/REC-SVG-20010904/DTD/svg10.dtd">
<svg version="1.0" xmlns="http://www.w3.org/2000/svg"
 width="1280.000000pt" height="1280.000000pt" viewBox="0 0 1280.000000 1280.000000"
 preserveAspectRatio="xMidYMid meet">
<metadata>
Created by potrace 1.15, written by Peter Selinger 2001-2017
</metadata>
<g transform="translate(0.000000,1280.000000) scale(0.100000,-0.100000)"
fill="white" stroke="none">
<path d="M6390 9244 c-14 -2 -106 -9 -205 -14 -296 -18 -546 -47 -676 -81 -20
-5 -48 -9 -62 -9 -14 0 -36 -4 -49 -9 -13 -5 -59 -17 -103 -27 -168 -36 -382
-93 -545 -147 -155 -51 -490 -175 -505 -187 -5 -4 -21 -11 -35 -15 -14 -4 -47
-18 -75 -30 -27 -13 -72 -32 -100 -44 -56 -25 -183 -88 -265 -134 -30 -16 -77
-41 -105 -55 -135 -67 -613 -376 -745 -481 -66 -53 -320 -261 -354 -291 -275
-235 -598 -582 -838 -897 -45 -60 -104 -135 -130 -168 -27 -33 -47 -68 -46
-77 5 -29 344 -460 490 -622 283 -316 718 -702 1038 -921 261 -180 410 -273
563 -354 135 -72 381 -196 417 -210 35 -15 129 -56 205 -91 74 -34 110 -48
185 -75 41 -14 83 -30 92 -36 10 -5 25 -9 33 -9 8 0 23 -4 33 -9 18 -10 118
-44 242 -81 95 -29 178 -51 265 -70 58 -12 224 -50 265 -60 59 -14 181 -38
255 -49 39 -6 113 -17 165 -25 171 -27 607 -56 831 -56 218 0 650 30 819 56
52 8 127 20 165 26 72 10 193 33 255 48 19 5 71 16 115 25 44 10 94 21 110 25
30 9 56 15 175 45 36 9 76 20 90 24 14 5 45 14 70 21 53 15 33 8 243 81 92 32
182 65 199 73 17 9 35 16 39 16 7 0 232 101 404 180 211 99 602 327 810 475
219 155 449 335 575 449 110 100 516 510 570 574 106 128 265 328 305 382 21
30 58 77 82 105 24 27 43 55 43 61 0 6 -12 27 -27 47 -29 36 -193 250 -228
296 -122 161 -464 533 -595 648 -41 36 -102 91 -135 122 -125 116 -430 359
-563 448 -48 32 -92 63 -99 69 -10 10 -93 61 -347 216 -81 49 -270 149 -396
209 -198 96 -248 119 -255 119 -3 0 -27 9 -52 21 -64 29 -212 85 -318 121 -49
16 -99 34 -110 39 -35 15 -167 56 -270 84 -55 14 -122 33 -150 40 -187 51
-329 82 -479 104 -38 6 -77 13 -87 16 -40 13 -282 39 -504 55 -146 10 -657 21
-695 14z"/>
</g>
</svg>
